<svg xmlns="http://www.w3.org/2000/svg" width="512" height="512" style="enable-background:new 0 0 512 512" xml:space="preserve"><g xmlns="http://www.w3.org/2000/svg"><path d="M188.623 18.645c19.671 23.49 67.84 84.761 106.365 163.969 48.164-13.549 98.742-37.576 148.389-77.393l11.989-9.613C408.401 37.347 336.486 0 256 0c-25.676 0-50.475 3.816-73.877 10.883zm273.523 109.98c-47.824 38.354-99.46 65.718-154.35 81.929 7.649 17.728 14.313 35.331 19.972 52.745 50.472-4.293 107.48 2.775 169.609 21.057l12.618 3.713A257.196 257.196 0 0 0 512 256c0-49.912-14.372-96.523-39.174-135.941zM31.124 170.417c25.439 9.648 81.816 27.307 152.898 27.309 25.47.001 52.83-2.271 81.33-7.986-35.359-70.856-78.26-126.196-99.73-151.836l-13.339-15.929C90.208 49.594 41.085 101.203 16.743 164.963zm67.404 274.598c11.277-33.572 39.53-96.218 102.051-138.584 28.486-19.302 61.125-32.396 97.248-39.1-5.695-16.956-12.177-33.43-19.169-49.287-26.899 5.902-54.523 9.237-82.82 9.946-3.789.096-7.553.142-11.271.142-74.385.001-134.246-18.348-164.082-29.664L7.701 193.62A255.632 255.632 0 0 0 0 256c0 80.284 37.159 152.041 95.17 199.013zm390.381-131.88c-59.847-17.61-110.163-23.102-152.444-20.31 3.805 14.495 6.888 28.828 9.23 42.957 9.029 54.46 7.184 106.526-5.487 154.754l-2.091 7.957c81.898-27.808 145.288-96.024 166.345-180.781z" data-original="#000000"/><path d="M311.192 482.912c16.635-63.314 11.48-127.281-4.563-186.575-117.872 20.396-163.458 109.984-179.664 158.23l-6.268 18.658C159.981 497.782 206.358 512 256 512c16.678 0 32.983-1.622 48.781-4.682z" data-original="#000000"/></g></svg>